ffmpeg started on 2026-01-16 at 16:14:17
Report written to "D:\Convert\FFMetrics\reports\psnr_report-6.txt"
Log level: 32
Command line:
ffmpeg -hide_banner -nostdin -r 24000/1001 -i "F:\\Convert\\files\\[DC] Make Heroine ga Oosugiru - 07_Telegram_HEVC(HB-12).mkv" -r 24000/1001 -i "F:\\Convert\\files\\[DC] Make Heroine ga Oosugiru - 07_Telegram.mp4" -lavfi "[0:v]settb=AVTB,setpts=PTS-STARTPTS,format=pix_fmts=yuv420p10le,fps=24000/1001,scale=1920:1080:flags=lanczos:param0=3:out_range=limited:out_color_matrix=bt709:out_chroma_loc=left,setsar=1/1,setdar=(1920/1080)*(1/1),colorspace=format=yuv420p10:range=tv:primaries=bt709:trc=bt709:space=bt709:fast=0[main];[1:v]settb=AVTB,setpts=PTS-STARTPTS,format=pix_fmts=yuv420p,fps=24000/1001,scale=1920:1080:flags=lanczos:param0=3:out_range=limited:out_color_matrix=bt709:out_chroma_loc=left,setsar=1.000,setdar=1.778,colorspace=format=yuv420p:range=tv:primaries=bt709:trc=bt709:space=bt709:fast=0[ref];[main][ref]psnr=eof_action=endall:stats_file='D\\:/Convert/FFMetrics/logs/psnr_logfile-6.txt'" -f null -
Input #0, matroska,webm, from 'F:\Convert\files\[DC] Make Heroine ga Oosugiru - 07_Telegram_HEVC(HB-12).mkv':
  Metadata:
    creation_time   : 2026-01-16T09:52:31.000000Z
    ENCODER         : Lavf61.7.100
  Duration: 00:24:06.81, start: -0.021000, bitrate: 1332 kb/s
  Stream #0:0: Video: hevc (Main 10), yuv420p10le(tv, bt709), 1920x1080 [SAR 1:1 DAR 16:9], 23.98 fps, 23.98 tbr, 1k tbn (default)
      Metadata:
        BPS             : 1167355
        DURATION        : 00:24:06.569708333
        NUMBER_OF_FRAMES: 34683
        NUMBER_OF_BYTES : 211082452
        _STATISTICS_WRITING_APP: mkvpropedit v94.0 ('Initiate') 64-bit
        _STATISTICS_WRITING_DATE_UTC: 2026-01-16 13:14:17
        _STATISTICS_TAGS: BPS DURATION NUMBER_OF_FRAMES NUMBER_OF_BYTES
  Stream #0:1: Audio: aac (LC), 48000 Hz, stereo, fltp (default)
      Metadata:
        title           : Stereo
        BPS             : 161191
        DURATION        : 00:24:06.784000000
        NUMBER_OF_FRAMES: 67819
        NUMBER_OF_BYTES : 29151109
        _STATISTICS_WRITING_APP: mkvpropedit v94.0 ('Initiate') 64-bit
        _STATISTICS_WRITING_DATE_UTC: 2026-01-16 13:14:17
        _STATISTICS_TAGS: BPS DURATION NUMBER_OF_FRAMES NUMBER_OF_BYTES
Input #1, mov,mp4,m4a,3gp,3g2,mj2, from 'F:\Convert\files\[DC] Make Heroine ga Oosugiru - 07_Telegram.mp4':
  Metadata:
    major_brand     : isom
    minor_version   : 512
    compatible_brands: isomiso2avc1mp41
    encoder         : Lavf60.16.100
  Duration: 00:24:06.74, start: 0.000000, bitrate: 3764 kb/s
  Stream #1:0[0x1](und): Video: h264 (High) (avc1 / 0x31637661), yuv420p(tv, bt709, progressive), 1920x1080 [SAR 1:1 DAR 16:9], 3616 kb/s, 23.98 fps, 23.98 tbr, 24k tbn (default)
      Metadata:
        handler_name    : VideoHandler
        vendor_id       : [0][0][0][0]
        encoder         : Lavc60.31.102 h264_qsv
  Stream #1:1[0x2](und): Audio: aac (HE-AACv2) (mp4a / 0x6134706D), 48000 Hz, stereo, fltp, 144 kb/s (default)
      Metadata:
        handler_name    : SoundHandler
        vendor_id       : [0][0][0][0]
Stream mapping:
  Stream #0:0 (hevc) -> settb:default
  Stream #1:0 (h264) -> settb:default
  psnr:default -> Stream #0:0 (wrapped_avframe)
  Stream #0:1 -> #0:1 (aac (native) -> pcm_s16le (native))
Output #0, null, to 'pipe:':
  Metadata:
    encoder         : Lavf61.7.100
  Stream #0:0: Video: wrapped_avframe, yuv420p10le(tv, bt709, progressive), 1920x1080 [SAR 1:1 DAR 16:9], q=2-31, 200 kb/s, 23.98 fps, 23.98 tbn
      Metadata:
        encoder         : Lavc61.19.100 wrapped_avframe
  Stream #0:1: Audio: pcm_s16le, 48000 Hz, stereo, s16, 1536 kb/s (default)
      Metadata:
        title           : Stereo
        BPS             : 161191
        DURATION        : 00:24:06.784000000
        NUMBER_OF_FRAMES: 67819
        NUMBER_OF_BYTES : 29151109
        _STATISTICS_WRITING_APP: mkvpropedit v94.0 ('Initiate') 64-bit
        _STATISTICS_WRITING_DATE_UTC: 2026-01-16 13:14:17
        _STATISTICS_TAGS: BPS DURATION NUMBER_OF_FRAMES NUMBER_OF_BYTES
        encoder         : Lavc61.19.100 pcm_s16le
frame=  122 fps=0.0 q=-0.0 size=N/A time=00:00:05.08 bitrate=N/A speed=9.97x    frame=  321 fps=314 q=-0.0 size=N/A time=00:00:13.38 bitrate=N/A speed=13.1x    frame=  522 fps=337 q=-0.0 size=N/A time=00:00:21.77 bitrate=N/A speed=  14x    frame=  714 fps=346 q=-0.0 size=N/A time=00:00:29.77 bitrate=N/A speed=14.4x    frame=  891 fps=346 q=-0.0 size=N/A time=00:00:37.16 bitrate=N/A speed=14.4x    frame= 1031 fps=334 q=-0.0 size=N/A time=00:00:43.00 bitrate=N/A speed=13.9x    frame= 1202 fps=333 q=-0.0 size=N/A time=00:00:50.13 bitrate=N/A speed=13.9x    frame= 1356 fps=329 q=-0.0 size=N/A time=00:00:56.55 bitrate=N/A speed=13.7x    frame= 1524 fps=329 q=-0.0 size=N/A time=00:01:03.56 bitrate=N/A speed=13.7x    frame= 1669 fps=324 q=-0.0 size=N/A time=00:01:09.61 bitrate=N/A speed=13.5x    frame= 1839 fps=324 q=-0.0 size=N/A time=00:01:16.70 bitrate=N/A speed=13.5x    frame= 1990 fps=322 q=-0.0 size=N/A time=00:01:22.99 bitrate=N/A speed=13.4x    frame= 2104 fps=314 q=-0.0 size=N/A time=00:01:27.75 bitrate=N/A speed=13.1x    frame= 2267 fps=314 q=-0.0 size=N/A time=00:01:34.55 bitrate=N/A speed=13.1x    frame= 2420 fps=312 q=-0.0 size=N/A time=00:01:40.93 bitrate=N/A speed=  13x    frame= 2549 fps=308 q=-0.0 size=N/A time=00:01:46.31 bitrate=N/A speed=12.9x    frame= 2723 fps=310 q=-0.0 size=N/A time=00:01:53.57 bitrate=N/A speed=12.9x    frame= 2893 fps=312 q=-0.0 size=N/A time=00:02:00.66 bitrate=N/A speed=  13x    frame= 3073 fps=313 q=-0.0 size=N/A time=00:02:08.16 bitrate=N/A speed=13.1x    frame= 3268 fps=316 q=-0.0 size=N/A time=00:02:16.30 bitrate=N/A speed=13.2x    frame= 3457 fps=319 q=-0.0 size=N/A time=00:02:24.18 bitrate=N/A speed=13.3x    frame= 3664 fps=322 q=-0.0 size=N/A time=00:02:32.81 bitrate=N/A speed=13.4x    frame= 3870 fps=325 q=-0.0 size=N/A time=00:02:41.41 bitrate=N/A speed=13.6x    frame= 4062 fps=327 q=-0.0 size=N/A time=00:02:49.41 bitrate=N/A speed=13.7x    frame= 4252 fps=329 q=-0.0 size=N/A time=00:02:57.34 bitrate=N/A speed=13.7x    frame= 4448 fps=331 q=-0.0 size=N/A time=00:03:05.51 bitrate=N/A speed=13.8x    frame= 4653 fps=333 q=-0.0 size=N/A time=00:03:14.06 bitrate=N/A speed=13.9x    frame= 4847 fps=335 q=-0.0 size=N/A time=00:03:22.16 bitrate=N/A speed=  14x    frame= 5039 fps=336 q=-0.0 size=N/A time=00:03:30.16 bitrate=N/A speed=  14x    frame= 5234 fps=338 q=-0.0 size=N/A time=00:03:38.30 bitrate=N/A speed=14.1x    frame= 5427 fps=339 q=-0.0 size=N/A time=00:03:46.35 bitrate=N/A speed=14.1x    frame= 5623 fps=340 q=-0.0 size=N/A time=00:03:54.52 bitrate=N/A speed=14.2x    frame= 5819 fps=341 q=-0.0 size=N/A time=00:04:02.70 bitrate=N/A speed=14.2x    frame= 6008 fps=342 q=-0.0 size=N/A time=00:04:10.58 bitrate=N/A speed=14.3x    frame= 6205 fps=343 q=-0.0 size=N/A time=00:04:18.80 bitrate=N/A speed=14.3x    frame= 6402 fps=344 q=-0.0 size=N/A time=00:04:27.01 bitrate=N/A speed=14.4x    frame= 6593 fps=345 q=-0.0 size=N/A time=00:04:34.98 bitrate=N/A speed=14.4x    frame= 6792 fps=346 q=-0.0 size=N/A time=00:04:43.28 bitrate=N/A speed=14.4x    frame= 6975 fps=346 q=-0.0 size=N/A time=00:04:50.91 bitrate=N/A speed=14.4x    frame= 7158 fps=347 q=-0.0 size=N/A time=00:04:58.54 bitrate=N/A speed=14.5x    frame= 7338 fps=347 q=-0.0 size=N/A time=00:05:06.05 bitrate=N/A speed=14.5x    frame= 7522 fps=347 q=-0.0 size=N/A time=00:05:13.73 bitrate=N/A speed=14.5x    frame= 7701 fps=347 q=-0.0 size=N/A time=00:05:21.19 bitrate=N/A speed=14.5x    frame= 7892 fps=347 q=-0.0 size=N/A time=00:05:29.16 bitrate=N/A speed=14.5x    frame= 8084 fps=348 q=-0.0 size=N/A time=00:05:37.17 bitrate=N/A speed=14.5x    frame= 8276 fps=348 q=-0.0 size=N/A time=00:05:45.17 bitrate=N/A speed=14.5x    frame= 8460 fps=349 q=-0.0 size=N/A time=00:05:52.85 bitrate=N/A speed=14.5x    frame= 8651 fps=349 q=-0.0 size=N/A time=00:06:00.81 bitrate=N/A speed=14.6x    frame= 8832 fps=349 q=-0.0 size=N/A time=00:06:08.36 bitrate=N/A speed=14.6x    frame= 9025 fps=350 q=-0.0 size=N/A time=00:06:16.41 bitrate=N/A speed=14.6x    frame= 9228 fps=350 q=-0.0 size=N/A time=00:06:24.88 bitrate=N/A speed=14.6x    frame= 9412 fps=350 q=-0.0 size=N/A time=00:06:32.55 bitrate=N/A speed=14.6x    frame= 9606 fps=351 q=-0.0 size=N/A time=00:06:40.65 bitrate=N/A speed=14.6x    frame= 9796 fps=351 q=-0.0 size=N/A time=00:06:48.57 bitrate=N/A speed=14.7x    frame= 9994 fps=352 q=-0.0 size=N/A time=00:06:56.83 bitrate=N/A speed=14.7x    frame=10174 fps=352 q=-0.0 size=N/A time=00:07:04.34 bitrate=N/A speed=14.7x    frame=10364 fps=352 q=-0.0 size=N/A time=00:07:12.26 bitrate=N/A speed=14.7x    frame=10552 fps=352 q=-0.0 size=N/A time=00:07:20.10 bitrate=N/A speed=14.7x    frame=10742 fps=353 q=-0.0 size=N/A time=00:07:28.03 bitrate=N/A speed=14.7x    frame=10931 fps=353 q=-0.0 size=N/A time=00:07:35.91 bitrate=N/A speed=14.7x    frame=11126 fps=353 q=-0.0 size=N/A time=00:07:44.04 bitrate=N/A speed=14.7x    frame=11314 fps=353 q=-0.0 size=N/A time=00:07:51.88 bitrate=N/A speed=14.7x    frame=11509 fps=354 q=-0.0 size=N/A time=00:08:00.02 bitrate=N/A speed=14.8x    frame=11699 fps=354 q=-0.0 size=N/A time=00:08:07.94 bitrate=N/A speed=14.8x    frame=11892 fps=354 q=-0.0 size=N/A time=00:08:15.99 bitrate=N/A speed=14.8x    frame=12096 fps=355 q=-0.0 size=N/A time=00:08:24.50 bitrate=N/A speed=14.8x    frame=12292 fps=355 q=-0.0 size=N/A time=00:08:32.67 bitrate=N/A speed=14.8x    frame=12479 fps=355 q=-0.0 size=N/A time=00:08:40.47 bitrate=N/A speed=14.8x    frame=12662 fps=356 q=-0.0 size=N/A time=00:08:48.11 bitrate=N/A speed=14.8x    frame=12862 fps=356 q=-0.0 size=N/A time=00:08:56.45 bitrate=N/A speed=14.8x    frame=13055 fps=356 q=-0.0 size=N/A time=00:09:04.50 bitrate=N/A speed=14.9x    frame=13246 fps=356 q=-0.0 size=N/A time=00:09:12.46 bitrate=N/A speed=14.9x    frame=13434 fps=357 q=-0.0 size=N/A time=00:09:20.30 bitrate=N/A speed=14.9x    frame=13633 fps=357 q=-0.0 size=N/A time=00:09:28.60 bitrate=N/A speed=14.9x    frame=13825 fps=357 q=-0.0 size=N/A time=00:09:36.61 bitrate=N/A speed=14.9x    frame=14011 fps=357 q=-0.0 size=N/A time=00:09:44.37 bitrate=N/A speed=14.9x    frame=14188 fps=357 q=-0.0 size=N/A time=00:09:51.75 bitrate=N/A speed=14.9x    frame=14380 fps=357 q=-0.0 size=N/A time=00:09:59.76 bitrate=N/A speed=14.9x    frame=14572 fps=357 q=-0.0 size=N/A time=00:10:07.77 bitrate=N/A speed=14.9x    frame=14756 fps=357 q=-0.0 size=N/A time=00:10:15.44 bitrate=N/A speed=14.9x    frame=14954 fps=358 q=-0.0 size=N/A time=00:10:23.70 bitrate=N/A speed=14.9x    frame=15121 fps=357 q=-0.0 size=N/A time=00:10:30.67 bitrate=N/A speed=14.9x    frame=15312 fps=357 q=-0.0 size=N/A time=00:10:38.63 bitrate=N/A speed=14.9x    frame=15498 fps=357 q=-0.0 size=N/A time=00:10:46.39 bitrate=N/A speed=14.9x    frame=15691 fps=358 q=-0.0 size=N/A time=00:10:54.44 bitrate=N/A speed=14.9x    frame=15889 fps=358 q=-0.0 size=N/A time=00:11:02.70 bitrate=N/A speed=14.9x    frame=16084 fps=358 q=-0.0 size=N/A time=00:11:10.83 bitrate=N/A speed=14.9x    frame=16280 fps=358 q=-0.0 size=N/A time=00:11:19.01 bitrate=N/A speed=14.9x    frame=16459 fps=358 q=-0.0 size=N/A time=00:11:26.47 bitrate=N/A speed=14.9x    frame=16659 fps=359 q=-0.0 size=N/A time=00:11:34.81 bitrate=N/A speed=  15x    frame=16854 fps=359 q=-0.0 size=N/A time=00:11:42.95 bitrate=N/A speed=  15x    frame=17045 fps=359 q=-0.0 size=N/A time=00:11:50.91 bitrate=N/A speed=  15x    frame=17236 fps=359 q=-0.0 size=N/A time=00:11:58.88 bitrate=N/A speed=  15x    frame=17432 fps=359 q=-0.0 size=N/A time=00:12:07.05 bitrate=N/A speed=  15x    frame=17618 fps=359 q=-0.0 size=N/A time=00:12:14.81 bitrate=N/A speed=  15x    frame=17810 fps=359 q=-0.0 size=N/A time=00:12:22.82 bitrate=N/A speed=  15x    frame=18001 fps=360 q=-0.0 size=N/A time=00:12:30.79 bitrate=N/A speed=  15x    frame=18187 fps=360 q=-0.0 size=N/A time=00:12:38.54 bitrate=N/A speed=  15x    frame=18373 fps=360 q=-0.0 size=N/A time=00:12:46.30 bitrate=N/A speed=  15x    frame=18576 fps=360 q=-0.0 size=N/A time=00:12:54.77 bitrate=N/A speed=  15x    frame=18772 fps=360 q=-0.0 size=N/A time=00:13:02.94 bitrate=N/A speed=  15x    frame=18964 fps=360 q=-0.0 size=N/A time=00:13:10.95 bitrate=N/A speed=  15x    frame=19157 fps=360 q=-0.0 size=N/A time=00:13:19.00 bitrate=N/A speed=  15x    frame=19359 fps=361 q=-0.0 size=N/A time=00:13:27.43 bitrate=N/A speed=  15x    frame=19554 fps=361 q=-0.0 size=N/A time=00:13:35.56 bitrate=N/A speed=15.1x    frame=19743 fps=361 q=-0.0 size=N/A time=00:13:43.44 bitrate=N/A speed=15.1x    frame=19940 fps=361 q=-0.0 size=N/A time=00:13:51.66 bitrate=N/A speed=15.1x    frame=20139 fps=361 q=-0.0 size=N/A time=00:13:59.96 bitrate=N/A speed=15.1x    frame=20331 fps=361 q=-0.0 size=N/A time=00:14:07.97 bitrate=N/A speed=15.1x    frame=20525 fps=362 q=-0.0 size=N/A time=00:14:16.06 bitrate=N/A speed=15.1x    frame=20713 fps=361 q=-0.0 size=N/A time=00:14:23.90 bitrate=N/A speed=15.1x    frame=20908 fps=362 q=-0.0 size=N/A time=00:14:32.03 bitrate=N/A speed=15.1x    frame=21102 fps=362 q=-0.0 size=N/A time=00:14:40.12 bitrate=N/A speed=15.1x    frame=21290 fps=362 q=-0.0 size=N/A time=00:14:47.97 bitrate=N/A speed=15.1x    frame=21485 fps=362 q=-0.0 size=N/A time=00:14:56.10 bitrate=N/A speed=15.1x    frame=21687 fps=362 q=-0.0 size=N/A time=00:15:04.52 bitrate=N/A speed=15.1x    frame=21873 fps=362 q=-0.0 size=N/A time=00:15:12.28 bitrate=N/A speed=15.1x    frame=22079 fps=363 q=-0.0 size=N/A time=00:15:20.87 bitrate=N/A speed=15.1x    frame=22276 fps=363 q=-0.0 size=N/A time=00:15:29.09 bitrate=N/A speed=15.1x    frame=22465 fps=363 q=-0.0 size=N/A time=00:15:36.97 bitrate=N/A speed=15.1x    frame=22659 fps=363 q=-0.0 size=N/A time=00:15:45.06 bitrate=N/A speed=15.1x    frame=22846 fps=363 q=-0.0 size=N/A time=00:15:52.86 bitrate=N/A speed=15.1x    frame=23035 fps=363 q=-0.0 size=N/A time=00:16:00.75 bitrate=N/A speed=15.1x    frame=23232 fps=363 q=-0.0 size=N/A time=00:16:08.96 bitrate=N/A speed=15.1x    frame=23429 fps=363 q=-0.0 size=N/A time=00:16:17.18 bitrate=N/A speed=15.1x    frame=23625 fps=363 q=-0.0 size=N/A time=00:16:25.35 bitrate=N/A speed=15.2x    frame=23828 fps=364 q=-0.0 size=N/A time=00:16:33.82 bitrate=N/A speed=15.2x    frame=24022 fps=364 q=-0.0 size=N/A time=00:16:41.91 bitrate=N/A speed=15.2x    frame=24210 fps=364 q=-0.0 size=N/A time=00:16:49.75 bitrate=N/A speed=15.2x    frame=24400 fps=364 q=-0.0 size=N/A time=00:16:57.68 bitrate=N/A speed=15.2x    frame=24604 fps=364 q=-0.0 size=N/A time=00:17:06.19 bitrate=N/A speed=15.2x    frame=24797 fps=364 q=-0.0 size=N/A time=00:17:14.24 bitrate=N/A speed=15.2x    frame=24997 fps=364 q=-0.0 size=N/A time=00:17:22.58 bitrate=N/A speed=15.2x    frame=25201 fps=364 q=-0.0 size=N/A time=00:17:31.09 bitrate=N/A speed=15.2x    frame=25391 fps=364 q=-0.0 size=N/A time=00:17:39.01 bitrate=N/A speed=15.2x    frame=25585 fps=365 q=-0.0 size=N/A time=00:17:47.10 bitrate=N/A speed=15.2x    frame=25776 fps=365 q=-0.0 size=N/A time=00:17:55.07 bitrate=N/A speed=15.2x    frame=25970 fps=365 q=-0.0 size=N/A time=00:18:03.16 bitrate=N/A speed=15.2x    frame=26170 fps=365 q=-0.0 size=N/A time=00:18:11.50 bitrate=N/A speed=15.2x    frame=26366 fps=365 q=-0.0 size=N/A time=00:18:19.68 bitrate=N/A speed=15.2x    frame=26562 fps=365 q=-0.0 size=N/A time=00:18:27.85 bitrate=N/A speed=15.2x    frame=26752 fps=365 q=-0.0 size=N/A time=00:18:35.78 bitrate=N/A speed=15.2x    frame=26942 fps=365 q=-0.0 size=N/A time=00:18:43.70 bitrate=N/A speed=15.2x    frame=27121 fps=365 q=-0.0 size=N/A time=00:18:51.17 bitrate=N/A speed=15.2x    frame=27297 fps=365 q=-0.0 size=N/A time=00:18:58.51 bitrate=N/A speed=15.2x    frame=27471 fps=365 q=-0.0 size=N/A time=00:19:05.76 bitrate=N/A speed=15.2x    frame=27661 fps=365 q=-0.0 size=N/A time=00:19:13.69 bitrate=N/A speed=15.2x    frame=27839 fps=365 q=-0.0 size=N/A time=00:19:21.11 bitrate=N/A speed=15.2x    frame=28026 fps=365 q=-0.0 size=N/A time=00:19:28.91 bitrate=N/A speed=15.2x    frame=28210 fps=364 q=-0.0 size=N/A time=00:19:36.59 bitrate=N/A speed=15.2x    frame=28405 fps=365 q=-0.0 size=N/A time=00:19:44.72 bitrate=N/A speed=15.2x    frame=28597 fps=365 q=-0.0 size=N/A time=00:19:52.73 bitrate=N/A speed=15.2x    frame=28775 fps=364 q=-0.0 size=N/A time=00:20:00.15 bitrate=N/A speed=15.2x    frame=28941 fps=364 q=-0.0 size=N/A time=00:20:07.08 bitrate=N/A speed=15.2x    frame=29109 fps=364 q=-0.0 size=N/A time=00:20:14.08 bitrate=N/A speed=15.2x    frame=29284 fps=364 q=-0.0 size=N/A time=00:20:21.38 bitrate=N/A speed=15.2x    frame=29453 fps=364 q=-0.0 size=N/A time=00:20:28.43 bitrate=N/A speed=15.2x    frame=29621 fps=363 q=-0.0 size=N/A time=00:20:35.44 bitrate=N/A speed=15.2x    frame=29797 fps=363 q=-0.0 size=N/A time=00:20:42.78 bitrate=N/A speed=15.1x    frame=29966 fps=363 q=-0.0 size=N/A time=00:20:49.83 bitrate=N/A speed=15.1x    frame=30137 fps=363 q=-0.0 size=N/A time=00:20:56.96 bitrate=N/A speed=15.1x    frame=30334 fps=363 q=-0.0 size=N/A time=00:21:05.18 bitrate=N/A speed=15.1x    frame=30526 fps=363 q=-0.0 size=N/A time=00:21:13.18 bitrate=N/A speed=15.1x    frame=30710 fps=363 q=-0.0 size=N/A time=00:21:20.86 bitrate=N/A speed=15.1x    frame=30916 fps=363 q=-0.0 size=N/A time=00:21:29.45 bitrate=N/A speed=15.1x    frame=31102 fps=363 q=-0.0 size=N/A time=00:21:37.21 bitrate=N/A speed=15.1x    frame=31295 fps=363 q=-0.0 size=N/A time=00:21:45.26 bitrate=N/A speed=15.1x    frame=31478 fps=363 q=-0.0 size=N/A time=00:21:52.89 bitrate=N/A speed=15.1x    frame=31671 fps=363 q=-0.0 size=N/A time=00:22:00.94 bitrate=N/A speed=15.1x    frame=31844 fps=363 q=-0.0 size=N/A time=00:22:08.16 bitrate=N/A speed=15.1x    frame=32014 fps=363 q=-0.0 size=N/A time=00:22:15.25 bitrate=N/A speed=15.1x    frame=32220 fps=363 q=-0.0 size=N/A time=00:22:23.84 bitrate=N/A speed=15.1x    frame=32406 fps=363 q=-0.0 size=N/A time=00:22:31.60 bitrate=N/A speed=15.1x    frame=32599 fps=363 q=-0.0 size=N/A time=00:22:39.64 bitrate=N/A speed=15.1x    frame=32738 fps=363 q=-0.0 size=N/A time=00:22:45.44 bitrate=N/A speed=15.1x    frame=32886 fps=362 q=-0.0 size=N/A time=00:22:51.62 bitrate=N/A speed=15.1x    frame=33076 fps=362 q=-0.0 size=N/A time=00:22:59.54 bitrate=N/A speed=15.1x    frame=33261 fps=362 q=-0.0 size=N/A time=00:23:07.26 bitrate=N/A speed=15.1x    frame=33430 fps=362 q=-0.0 size=N/A time=00:23:14.30 bitrate=N/A speed=15.1x    frame=33578 fps=362 q=-0.0 size=N/A time=00:23:20.48 bitrate=N/A speed=15.1x    frame=33722 fps=361 q=-0.0 size=N/A time=00:23:26.48 bitrate=N/A speed=15.1x    frame=33838 fps=360 q=-0.0 size=N/A time=00:23:31.32 bitrate=N/A speed=  15x    frame=33975 fps=360 q=-0.0 size=N/A time=00:23:37.04 bitrate=N/A speed=  15x    frame=34125 fps=359 q=-0.0 size=N/A time=00:23:43.29 bitrate=N/A speed=  15x    frame=34270 fps=359 q=-0.0 size=N/A time=00:23:49.34 bitrate=N/A speed=  15x    frame=34390 fps=358 q=-0.0 size=N/A time=00:23:54.34 bitrate=N/A speed=14.9x    frame=34542 fps=358 q=-0.0 size=N/A time=00:24:00.68 bitrate=N/A speed=14.9x    [Parsed_psnr_16 @ 000001cdfbc6e3c0] PSNR y:48.445003 u:50.185884 v:50.404131 average:48.978293 min:32.369003 max:inf
[out#0/null @ 000001cdef3a1d00] video:14903KiB audio:271276KiB subtitle:0KiB other streams:0KiB global headers:0KiB muxing overhead: unknown
frame=34683 fps=358 q=-0.0 Lsize=N/A time=00:24:06.57 bitrate=N/A speed=14.9x    
